<svg width="60" height="61" viewBox="0 0 60 61" fill="none" xmlns="http://www.w3.org/2000/svg">
<g filter="url(#filter0_d_153_2402)">
<circle cx="30" cy="26.1434" r="26" fill="#3485FF"/>
<path d="M38 35.1434V33.1434C38 32.0826 37.5786 31.0652 36.8284 30.315C36.0783 29.5649 35.0609 29.1434 34 29.1434H26C24.9391 29.1434 23.9217 29.5649 23.1716 30.315C22.4214 31.0652 22 32.0826 22 33.1434V35.1434" stroke="#FAFAFA" stroke-width="2" stroke-linecap="round" stroke-linejoin="round"/>
<path d="M30 25.1434C32.2091 25.1434 34 23.3526 34 21.1434C34 18.9343 32.2091 17.1434 30 17.1434C27.7909 17.1434 26 18.9343 26 21.1434C26 23.3526 27.7909 25.1434 30 25.1434Z" stroke="#FAFAFA" stroke-width="2" stroke-linecap="round" stroke-linejoin="round"/>
</g>
<defs>
<filter id="filter0_d_153_2402" x="0" y="0.143433" width="60" height="60" filterUnits="userSpaceOnUse" color-interpolation-filters="sRGB">
<feFlood flood-opacity="0" result="BackgroundImageFix"/>
<feColorMatrix in="SourceAlpha" type="matrix" values="0 0 0 0 0 0 0 0 0 0 0 0 0 0 0 0 0 0 127 0" result="hardAlpha"/>
<feOffset dy="4"/>
<feGaussianBlur stdDeviation="2"/>
<feComposite in2="hardAlpha" operator="out"/>
<feColorMatrix type="matrix" values="0 0 0 0 0 0 0 0 0 0 0 0 0 0 0 0 0 0 0.25 0"/>
<feBlend mode="normal" in2="BackgroundImageFix" result="effect1_dropShadow_153_2402"/>
<feBlend mode="normal" in="SourceGraphic" in2="effect1_dropShadow_153_2402" result="shape"/>
</filter>
</defs>
</svg>
