<svg width="20" height="21" viewBox="0 0 20 21" fill="none" xmlns="http://www.w3.org/2000/svg">
<g clip-path="url(#clip0_10906_570)">
<path d="M16.6667 7.57172H9.16667C8.24619 7.57172 7.5 8.31791 7.5 9.23838V16.7384C7.5 17.6589 8.24619 18.4051 9.16667 18.4051H16.6667C17.5871 18.4051 18.3333 17.6589 18.3333 16.7384V9.23838C18.3333 8.31791 17.5871 7.57172 16.6667 7.57172Z" stroke="#3485FF" stroke-width="2" stroke-linecap="round" stroke-linejoin="round"/>
<path d="M4.16675 12.5717H3.33341C2.89139 12.5717 2.46746 12.3961 2.1549 12.0836C1.84234 11.771 1.66675 11.3471 1.66675 10.9051V3.40507C1.66675 2.96304 1.84234 2.53912 2.1549 2.22656C2.46746 1.914 2.89139 1.7384 3.33341 1.7384H10.8334C11.2754 1.7384 11.6994 1.914 12.0119 2.22656C12.3245 2.53912 12.5001 2.96304 12.5001 3.40507V4.2384" stroke="#3485FF" stroke-width="2" stroke-linecap="round" stroke-linejoin="round"/>
</g>
<defs>
<clipPath id="clip0_10906_570">
<rect width="20" height="20" fill="white" transform="translate(0 0.0717163)"/>
</clipPath>
</defs>
</svg>
