<svg width="20" height="21" viewBox="0 0 20 21" fill="none" xmlns="http://www.w3.org/2000/svg">
<g clip-path="url(#clip0_10906_245)">
<path d="M15 6.73836H14.1667V5.0717C14.1667 2.7717 12.3 0.905029 10 0.905029C7.70004 0.905029 5.83337 2.7717 5.83337 5.0717V6.73836H5.00004C4.08337 6.73836 3.33337 7.48836 3.33337 8.40503V16.7384C3.33337 17.655 4.08337 18.405 5.00004 18.405H15C15.9167 18.405 16.6667 17.655 16.6667 16.7384V8.40503C16.6667 7.48836 15.9167 6.73836 15 6.73836ZM10 14.2384C9.08337 14.2384 8.33337 13.4884 8.33337 12.5717C8.33337 11.655 9.08337 10.905 10 10.905C10.9167 10.905 11.6667 11.655 11.6667 12.5717C11.6667 13.4884 10.9167 14.2384 10 14.2384ZM12.5834 6.73836H7.41671V5.0717C7.41671 3.6467 8.57504 2.48836 10 2.48836C11.425 2.48836 12.5834 3.6467 12.5834 5.0717V6.73836Z" fill="#A5B0C1"/>
</g>
<defs>
<clipPath id="clip0_10906_245">
<rect width="20" height="20" fill="white" transform="translate(0 0.0717163)"/>
</clipPath>
</defs>
</svg>
