<svg width="24" height="25" viewBox="0 0 24 25" fill="none" xmlns="http://www.w3.org/2000/svg">
<path d="M3 6.14343H5H21" stroke="#E83F5B" stroke-width="2" stroke-linecap="round" stroke-linejoin="round"/>
<path d="M8 6.14343V4.14343C8 3.613 8.21071 3.10429 8.58579 2.72922C8.96086 2.35415 9.46957 2.14343 10 2.14343H14C14.5304 2.14343 15.0391 2.35415 15.4142 2.72922C15.7893 3.10429 16 3.613 16 4.14343V6.14343M19 6.14343V20.1434C19 20.6739 18.7893 21.1826 18.4142 21.5576C18.0391 21.9327 17.5304 22.1434 17 22.1434H7C6.46957 22.1434 5.96086 21.9327 5.58579 21.5576C5.21071 21.1826 5 20.6739 5 20.1434V6.14343H19Z" stroke="#E83F5B" stroke-width="2" stroke-linecap="round" stroke-linejoin="round"/>
</svg>
